#!OML:ASF E:\emotionWalksFemale\Project 1\Capture day 1\Session 1\Female1.ASF
:FULLY-SPECIFIED
:DEGREES
17
root 8.80765 15.5367 23.6728 178.295 0.174335 -178.721
lowerback 7.70633 2.73269 1.08064
upperback -3.78305 3.82501 -0.116906
thorax -8.23854 1.82374 -1.29206
lowerneck -8.49906 3.05575 -2.81431
upperneck 18.8911 2.59622 7.05544
head 7.0132 1.36081 2.93993
rclavicle -7.92654e-015 -9.74045e-015
rhumerus -48.0775 3.03388 -85.3613
rradius 34.8327
rwrist 25.7614
rhand -2.48762 -47.2463
rfingers 7.12502
rthumb 23.2056 -75.8683
lclavicle -7.92654e-015 -9.74045e-015
lhumerus -44.8542 -0.829119 81.569
lradius 36.6982
lwrist -13.9613
lhand -3.64035 -29.0271
lfingers 7.12502
lthumb 22.0993 -0.269981
rfemur 1.05852 13.076 26.685
rtibia 14.5906
rfoot -13.9265 -27.8619
rtoes 7.64409
lfemur -4.23013 -20.7489 -22.2256
ltibia 22.3683
lfoot -20.71 17.5262
ltoes -39.3425
18
root 8.81313 15.5395 23.6772 178.349 0.572776 -178.801
lowerback 7.67307 2.7661 0.921081
upperback -3.78006 3.84671 -0.176235
thorax -8.2216 1.84139 -1.2667
lowerneck -8.46484 2.16216 -3.62455
upperneck 18.8111 1.43995 7.27954
head 7.03146 0.762317 3.05471
rclavicle -3.08862e-014 -7.95139e-015
rhumerus -47.9132 3.15902 -85.9448
rradius 35.5185
rwrist 24.4953
rhand -2.24242 -46.7426
rfingers 7.12502
rthumb 23.4409 -75.3347
lclavicle -3.08862e-014 -7.95139e-015
lhumerus -44.9154 -1.0798 81.6354
lradius 37.0321
lwrist -13.1158
lhand -3.30472 -28.807
lfingers 7.12502
lthumb 22.4215 -0.088314
rfemur 0.754246 13.0192 26.5518
rtibia 14.8592
rfoot -13.8517 -27.5718
rtoes 7.04545
lfemur -4.2588 -20.5471 -22.2775
ltibia 22.3779
lfoot -20.8721 17.7438
ltoes -38.895
19
root 8.8176 15.5378 23.6858 178.38 0.928292 -178.864
lowerback 7.74674 2.75157 0.767291
upperback -3.80024 3.81104 -0.176408
thorax -8.2972 1.83108 -1.18121
lowerneck -8.28143 1.29436 -4.59843
upperneck 18.6726 0.333067 7.54677
head 7.01294 0.177187 3.21246
rclavicle 7.03449e-014 2.78299e-015
rhumerus -47.7362 3.34339 -86.4658
rradius 36.1734
rwrist 23.3934
rhand -1.80203 -46.2766
rfingers 7.12502
rthumb 23.8633 -74.8142
lclavicle 7.03449e-014 2.78299e-015
lhumerus -45.1482 -1.27516 81.8244
lradius 37.4093
lwrist -12.0256
lhand -4.05286 -29.3095
lfingers 7.12502
lthumb 21.7032 -0.506037
rfemur 0.481159 12.9203 26.4404
rtibia 15.1657
rfoot -13.8459 -27.273
rtoes 6.47069
lfemur -4.32057 -20.2487 -22.3092
ltibia 22.4333
lfoot -20.7808 17.9801
ltoes -39.1818
20
root 8.82106 15.534 23.6957 178.371 1.30477 -178.869
lowerback 7.90579 2.69992 0.654803
upperback -3.79781 3.73239 -0.12856
thorax -8.39948 1.79798 -1.06561
lowerneck -8.15949 0.466044 -5.69525
upperneck 18.5031 -0.714717 7.92499
head 7.00657 -0.374285 3.43375
rclavicle -2.85753e-014 -3.57812e-015
rhumerus -47.3266 3.73033 -87.1733
rradius 37.557
rwrist 20.1544
rhand 0.530157 -48.7884
rfingers 7.12502
rthumb 26.0981 -77.0152
lclavicle -2.85753e-014 -3.57812e-015
lhumerus -45.3517 -1.26628 81.9766
lradius 37.7672
lwrist -11.0967
lhand -6.37629 -31.1307
lfingers 7.12502
lthumb 19.4706 -2.0856
rfemur 0.273561 12.8151 26.3885
rtibia 15.4447
rfoot -14.0863 -26.8441
rtoes 6.45679
lfemur -4.42036 -19.935 -22.2698
ltibia 22.623
lfoot -21.1031 17.7659
ltoes -37.5947
21
root 8.8244 15.5309 23.7044 178.443 1.68208 -178.871
lowerback 7.98578 2.67366 0.580315
upperback -3.80792 3.68833 -0.135072
thorax -8.46219 1.77921 -1.02925
lowerneck -8.04946 -0.353391 -6.59212
upperneck 18.2966 -1.77566 8.27946
head 7.0078 -0.918197 3.6117
rclavicle -2.87492e-014 -1.78906e-015
rhumerus -47.0747 3.82274 -87.6253
rradius 37.8346
rwrist 19.9728
rhand 0.259024 -46.8144
rfingers 7.12502
rthumb 25.8384 -75.0793
lclavicle -2.87492e-014 -1.78906e-015
lhumerus -45.493 -1.46577 82.1585
lradius 38.0977
lwrist -10.0634
lhand -3.93387 -28.7947
lfingers 7.12502
lthumb 21.8175 -0.00454467
rfemur -0.0368506 12.6644 26.3375
rtibia 15.7226
rfoot -13.9281 -26.508
rtoes 5.17144
lfemur -4.68512 -19.5548 -22.1925
ltibia 22.9486
lfoot -21.4905 17.5314
ltoes -36.055
